<svg height="512" viewBox="0 0 512 512" width="512" xmlns="http://www.w3.org/2000/svg"><g id="Unicycle"><g id="Filled"><g id="Filled-2" data-name="Filled"><path d="m264 216a144 144 0 1 0 144 144 144 144 0 0 0 -144-144zm0 256a112 112 0 1 1 112-112 112 112 0 0 1 -112 112z" fill="#e2e2e2"/></g><path d="m393.816 297.6a292.932 292.932 0 0 1 -22.452 30.431 112.01 112.01 0 0 1 -194.337 102.531q-14.322 1.421-29.027 1.438-4.425 0-8.816-.143a144.03 144.03 0 0 0 254.632-134.257z" fill="#d3d3d3"/><path d="m305.922 70.84-113.778-38.84c-24-8-16.144-24 0-24h119.72a16 16 0 0 1 16 16v31.984a16 16 0 0 1 -21.942 14.856z" fill="#e56161"/><path d="m248 152h32v184h-32z" fill="#ffd740"/><circle cx="264" cy="360" fill="#ffc400" r="32"/><rect fill="#0277bd" height="32" rx="16" width="72" x="352" y="408"/><rect fill="#0277bd" height="32" rx="16" width="80" x="104" y="280"/><g fill="#f29c9c"><circle cx="288" cy="24" r="16"/><circle cx="312" cy="56" r="8"/></g></g><g id="Outline"><path d="m178.206 254.48a135.207 135.207 0 0 1 40.461-22.748 8 8 0 0 0 -5.334-15.084 151.177 151.177 0 0 0 -45.233 25.432 8 8 0 1 0 10.111 12.4z"/><path d="m351.14 464.411a136.135 136.135 0 0 1 -87.14 31.589c-80.946 0-144.2-70.691-135.16-151.106a8 8 0 0 0 -15.9-1.788c-10.119 90.13 60.797 168.894 151.06 168.894a152.153 152.153 0 0 0 97.4-35.312 8 8 0 1 0 -10.259-12.277z"/><path d="m384.044 288.43a8.01 8.01 0 0 0 6.663-12.417l-.584-.873a8 8 0 0 0 -11.1-2.183c-6.998 4.697-2.582 15.473 5.021 15.473z"/><path d="m304.457 221.524a8 8 0 0 0 4.877 10.209 135.11 135.11 0 0 1 47.992 29.339 8 8 0 1 0 10.983-11.634 151.011 151.011 0 0 0 -53.643-32.791 8 8 0 0 0 -10.209 4.877z"/><path d="m391.161 311.663a135.914 135.914 0 0 1 8.649 55.584 8 8 0 0 0 15.978.842 151.862 151.862 0 0 0 -9.672-62.113 8 8 0 1 0 -14.955 5.687z"/><path d="m272.92 8a8 8 0 0 0 -8-8h-1a8 8 0 0 0 -8 8c0 10.642 17 10.721 17 0z"/><circle cx="264" cy="360" r="8"/><path d="m212.57 251.563a119.144 119.144 0 0 0 -12.18 6.679c-6.811 4.27-3.714 14.779 4.257 14.779 3.945 0 4.3-2.029 14.783-7a8 8 0 1 0 -6.86-14.455z"/><path d="m154.277 336.081a7.994 7.994 0 0 0 -9.056 6.781c-10.35 72.088 45.623 137.138 118.779 137.138a119.22 119.22 0 0 0 69.273-22 8 8 0 1 0 -9.246-13.059 103.3 103.3 0 0 1 -60.027 19.059c-63.3 0-111.934-56.262-102.941-118.862a8 8 0 0 0 -6.782-9.057z"/><path d="m374.87 384a8 8 0 0 0 7.909-6.865 119.993 119.993 0 0 0 -67.348-125.573 8 8 0 1 0 -6.862 14.455 104.391 104.391 0 0 1 58.372 108.846 8.271 8.271 0 0 0 7.929 9.137z"/><path d="m408 400c-41.283.179-40.649-.4-45.038.536l-60.333-30.166a39.946 39.946 0 0 0 -14.629-42.349v-176.021a8 8 0 0 0 -8-8h-8v-32h8a8 8 0 0 0 0-16h-8v-28.287c33.286 11.087 33.762 12.287 39.878 12.287a24.028 24.028 0 0 0 23.986-24.016v-31.984a24.027 24.027 0 0 0 -24-24h-14.944a8 8 0 0 0 0 16h14.944a8.009 8.009 0 0 1 8 8v31.984a8.018 8.018 0 0 1 -7.986 8.016c-1.833 0 5.434 2.391-117.2-39.59-7.4-2.468-9.5-5.227-9.713-5.9.337-.644 2.565-2.506 7.183-2.506h39.772a8 8 0 0 0 0-16h-39.776c-25.415 0-34.953 28.782-2.585 39.571l66.441 22.677v33.748h-8a8 8 0 0 0 0 16h8v32h-8a8 8 0 0 0 -8 8v176.021a40.357 40.357 0 0 0 -7.452 7.309l-46.674-23.337c13.726-15.323 2.926-39.993-17.874-39.993h-48a24 24 0 0 0 0 48h46.111l59.26 29.63c-11.343 42.214 43.483 68.874 70.08 35.04l52.456 26.23c-10.359 15.83 1.012 37.1 20.093 37.1h40a24 24 0 0 0 0-48zm-240-96h-48a8 8 0 0 1 0-16h48a8 8 0 0 1 0 16zm88-144h16v160.805a40.148 40.148 0 0 0 -16 0zm8 224a24 24 0 1 1 24-24 24.028 24.028 0 0 1 -24 24zm144 48h-40a8 8 0 0 1 0-16h40a8 8 0 0 1 0 16z"/></g></g></svg>