<svg width="14" height="15" viewBox="0 0 14 15" fill="none" xmlns="http://www.w3.org/2000/svg">
    <path d="M3 2.75H11C12.2426 2.75 13.25 3.75736 13.25 5V12C13.25 13.2426 12.2426 14.25 11 14.25H3C1.75736 14.25 0.75 13.2426 0.75 12V5C0.75 3.75736 1.75736 2.75 3 2.75Z" stroke="black" stroke-width="1.5"/>
    <path d="M4 5V1" stroke="black" stroke-width="1.5" stroke-linecap="round" stroke-linejoin="round"/>
    <path d="M10 5V1" stroke="black" stroke-width="1.5" stroke-linecap="round" stroke-linejoin="round"/>
    <path d="M10.25 8.25003H3.75M10.25 11.25H3.75" stroke="black" stroke-width="1.5" stroke-linecap="round" stroke-linejoin="round"/>
    <path d="M0 5C0 3.34315 1.34315 2 3 2H11C12.6569 2 14 3.34315 14 5V6H0V5Z" fill="black"/>
</svg>
