<svg width="19" height="16" viewBox="0 0 19 16" fill="none" xmlns="http://www.w3.org/2000/svg">
<path d="M8.23549 6.22264H10.0129V10.6661H8.23549V6.22264Z" fill="#FF4F4F"/>
<path d="M9.12418 11.5547C8.63337 11.5547 8.23549 11.9526 8.23549 12.4434C8.23549 12.9342 8.63337 13.3321 9.12418 13.3321C9.61499 13.3321 10.0129 12.9342 10.0129 12.4434C10.0129 11.9526 9.61499 11.5547 9.12418 11.5547Z" fill="#FF4F4F"/>
<path fill-rule="evenodd" clip-rule="evenodd" d="M0.890015 16C0.205432 16 -0.222078 15.2585 0.120923 14.6661L8.35508 0.443423C8.69737 -0.147806 9.55097 -0.147808 9.89326 0.44342L18.1274 14.6661C18.4704 15.2585 18.0429 16 17.3583 16H0.890015ZM15.8169 14.2226L9.12417 2.66238L2.43139 14.2226H15.8169Z" fill="#FF4F4F"/>
<path d="M8.23549 11.5547H10.0129V13.3321H8.23549V11.5547Z" fill="#FF4F4F"/>
</svg>
