<svg width="14" height="15" viewBox="0 0 14 15" fill="none" xmlns="http://www.w3.org/2000/svg">
    <path fill-rule="evenodd" clip-rule="evenodd" d="M3.5 2.25C3.5 1.00736 4.50736 0 5.75 0H7.75C8.99264 0 10 1.00736 10 2.25V2.5H11.2403H11.258H12.75C13.1642 2.5 13.5 2.83579 13.5 3.25C13.5 3.66421 13.1642 4 12.75 4H11.932L11.1259 12.4633C11.016 13.6181 10.0461 14.5 8.88607 14.5H4.61393C3.45392 14.5 2.48404 13.6181 2.37407 12.4633L1.56803 4H0.75C0.335786 4 0 3.66421 0 3.25C0 2.83579 0.335786 2.5 0.75 2.5H2.24204H2.25973H3.5V2.25ZM5 2.5H8.5V2.25C8.5 1.83579 8.16421 1.5 7.75 1.5H5.75C5.33579 1.5 5 1.83579 5 2.25V2.5ZM5.74935 5.71878C5.73211 5.30492 5.38263 4.98341 4.96878 5.00065C4.55492 5.01789 4.23341 5.36737 4.25065 5.78122L4.50065 11.7812C4.51789 12.1951 4.86737 12.5166 5.28122 12.4993C5.69508 12.4821 6.01659 12.1326 5.99935 11.7188L5.74935 5.71878ZM9.24935 5.78122C9.26659 5.36737 8.94508 5.01789 8.53122 5.00065C8.11737 4.98341 7.76789 5.30492 7.75065 5.71878L7.50065 11.7188C7.48341 12.1326 7.80492 12.4821 8.21878 12.4993C8.63263 12.5166 8.98211 12.1951 8.99935 11.7812L9.24935 5.78122Z" fill="black"/>
</svg>
