<svg width="30" height="30" viewBox="0 0 30 30" fill="none" xmlns="http://www.w3.org/2000/svg">
    <circle cx="15" cy="15" r="15" fill="black"/>
    <path fill-rule="evenodd" clip-rule="evenodd" d="M11.5 10.25C11.5 9.00736 12.5074 8 13.75 8H15.75C16.9926 8 18 9.00736 18 10.25V10.5H19.2403H19.258H20.75C21.1642 10.5 21.5 10.8358 21.5 11.25C21.5 11.6642 21.1642 12 20.75 12H19.932L19.1259 20.4633C19.016 21.6181 18.0461 22.5 16.8861 22.5H12.6139C11.4539 22.5 10.484 21.6181 10.3741 20.4633L9.56803 12H8.75C8.33579 12 8 11.6642 8 11.25C8 10.8358 8.33579 10.5 8.75 10.5H10.242H10.2597H11.5V10.25ZM13 10.5H16.5V10.25C16.5 9.83579 16.1642 9.5 15.75 9.5H13.75C13.3358 9.5 13 9.83579 13 10.25V10.5ZM13.7493 13.7188C13.7321 13.3049 13.3826 12.9834 12.9688 13.0007C12.5549 13.0179 12.2334 13.3674 12.2507 13.7812L12.5007 19.7812C12.5179 20.1951 12.8674 20.5166 13.2812 20.4993C13.6951 20.4821 14.0166 20.1326 13.9993 19.7188L13.7493 13.7188ZM17.2493 13.7812C17.2666 13.3674 16.9451 13.0179 16.5312 13.0007C16.1174 12.9834 15.7679 13.3049 15.7507 13.7188L15.5007 19.7188C15.4834 20.1326 15.8049 20.4821 16.2188 20.4993C16.6326 20.5166 16.9821 20.1951 16.9993 19.7812L17.2493 13.7812Z" fill="white"/>
</svg>
