<svg width="34" height="34" viewBox="0 0 34 34" fill="none" xmlns="http://www.w3.org/2000/svg">
    <circle cx="17" cy="17" r="16" stroke="white" stroke-width="2"/>
    <path d="M21.1039 9.00333L19.0841 9C16.8149 9 15.3484 10.5455 15.3484 12.9376V14.7531H13.3176C13.1421 14.7531 13 14.8993 13 15.0795V17.71C13 17.8903 13.1423 18.0363 13.3176 18.0363H15.3484V24.6738C15.3484 24.854 15.4906 25 15.666 25H18.3157C18.4912 25 18.6333 24.8539 18.6333 24.6738V18.0363H21.0079C21.1833 18.0363 21.3254 17.8903 21.3254 17.71L21.3264 15.0795C21.3264 14.993 21.2929 14.9101 21.2334 14.8488C21.1739 14.7876 21.0929 14.7531 21.0087 14.7531H18.6333V13.2141C18.6333 12.4744 18.8049 12.0989 19.743 12.0989L21.1036 12.0984C21.2789 12.0984 21.4211 11.9522 21.4211 11.7721V9.32958C21.4211 9.14964 21.2791 9.00366 21.1039 9.00333Z" fill="white"/>
</svg>
