<svg width="34" height="34" viewBox="0 0 34 34" fill="none" xmlns="http://www.w3.org/2000/svg">
    <circle cx="17" cy="17" r="16" stroke="white" stroke-width="2"/>
    <path d="M24.9964 23.4V23.3994H25V18.1182C25 15.5345 24.4438 13.5443 21.4234 13.5443C19.9714 13.5443 18.997 14.3411 18.5992 15.0965H18.5572V13.7855H15.6934V23.3994H18.6754V18.639C18.6754 17.3856 18.913 16.1736 20.4652 16.1736C21.9946 16.1736 22.0174 17.604 22.0174 18.7194V23.4H24.9964Z" fill="white"/>
    <path d="M10.8375 13.7861H13.8231V23.4H10.8375V13.7861Z" fill="white"/>
    <path d="M12.3292 9C11.3746 9 10.6 9.7746 10.6 10.7292C10.6 11.6838 11.3746 12.4746 12.3292 12.4746C13.2838 12.4746 14.0584 11.6838 14.0584 10.7292C14.0578 9.7746 13.2832 9 12.3292 9V9Z" fill="white"/>
</svg>
