<svg width="67" height="40" viewBox="0 0 67 40" fill="none" xmlns="http://www.w3.org/2000/svg">
    <path d="M39.1955 19.0838C40.3128 18.0559 40.8938 16.581 40.8938 14.5698V3.62012H37.1396V5.36313C36.7821 4.73743 36.2458 4.24581 35.5307 3.88827C34.8156 3.53073 34.0558 3.35196 33.2067 3.35196C32.1341 3.35196 31.1955 3.62012 30.3463 4.11174C29.4972 4.60336 28.8715 5.31844 28.4246 6.25699C27.9776 7.19553 27.7095 8.26816 27.7095 9.47486C27.7095 10.6816 27.9329 11.7542 28.4246 12.6927C28.8715 13.6313 29.5419 14.3464 30.3463 14.838C31.1955 15.3296 32.1341 15.5978 33.2067 15.5978C34.0558 15.5978 34.8603 15.419 35.5754 15.0615C36.2905 14.7039 36.7821 14.2123 37.1396 13.5419V14.8827C37.1396 16.8492 36.1117 17.8324 34.0111 17.8324C32.4469 17.8324 30.8827 17.3855 29.2737 16.5363L28.2905 19.1285C29.0503 19.6201 29.9441 19.9777 30.972 20.2458C32 20.514 33.0279 20.648 34.1452 20.648C36.3799 20.648 38.0335 20.1117 39.1955 19.0838ZM36.3799 11.8436C35.8882 12.4246 35.2179 12.6927 34.324 12.6927C33.4301 12.6927 32.7598 12.4246 32.2234 11.8436C31.7318 11.2626 31.4637 10.4581 31.4637 9.47486C31.4637 8.44693 31.7318 7.64246 32.2234 7.06146C32.7151 6.48045 33.4301 6.21229 34.324 6.21229C35.2179 6.21229 35.8882 6.48045 36.3799 7.06146C36.8715 7.64246 37.1396 8.44693 37.1396 9.47486C37.1396 10.4581 36.8715 11.2626 36.3799 11.8436Z" fill="white"/>
    <path d="M54.3017 14.6145L53.3185 12.067C52.7821 12.4693 52.2458 12.7374 51.6201 12.9609C50.9944 13.1844 50.3687 13.2737 49.743 13.2737C48.7598 13.2737 48.0447 13.0503 47.5084 12.6034C46.9721 12.1564 46.6592 11.4413 46.5252 10.4581H54.5252V9.51956C54.5252 7.59777 54.0335 6.07822 53.0056 4.9609C51.9777 3.84358 50.6369 3.26257 48.8939 3.26257C47.7319 3.26257 46.6592 3.53073 45.7654 4.06704C44.8268 4.60336 44.1117 5.36313 43.6201 6.34637C43.0838 7.32961 42.8604 8.44693 42.8604 9.69833C42.8604 11.6648 43.4414 13.2291 44.6481 14.3911C45.8548 15.5531 47.4637 16.0894 49.5643 16.0894C50.4134 16.0894 51.3073 15.9553 52.1564 15.6872C53.0056 15.4637 53.7207 15.0615 54.3017 14.6145ZM47.2849 6.61453C47.7319 6.1676 48.2682 5.94414 48.9833 5.94414C49.6983 5.94414 50.2793 6.1676 50.6369 6.61453C51.0391 7.06146 51.2626 7.73185 51.3073 8.6257H46.4805C46.6145 7.73185 46.8827 7.06146 47.2849 6.61453Z" fill="white"/>
    <path d="M57.8771 11.1732C57.8771 12.8268 58.324 14.0782 59.1732 14.9274C60.0224 15.7318 61.4079 16.1341 63.2849 16.1341C63.7766 16.1341 64.2682 16.0894 64.7598 16.0447L64.9386 13.2737C64.5363 13.3184 64.1341 13.3631 63.7319 13.3631C62.3464 13.3631 61.676 12.648 61.676 11.1732V6.43575H64.7598V3.62011H61.676V0H57.8771V3.62011H55.5531V6.43575H57.8771V11.1732Z" fill="white"/>
    <path d="M7.32961 33.5643V26.5028H11.6201V23.3743H7.32961V18.5028H3.12849V23.3743H0V26.5028H3.12849V33.609C3.12849 35.7095 3.6648 37.2738 4.78212 38.3464C5.85475 39.419 7.55307 39.9553 9.8771 39.9553C10.4134 39.9553 11.0391 39.9106 11.7095 39.8659L11.8883 36.7374C11.352 36.7821 10.8603 36.8268 10.3687 36.8268C8.31285 36.8268 7.32961 35.7542 7.32961 33.5643Z" fill="white"/>
    <path d="M26.3241 25.8324C25.8324 24.9385 25.1174 24.2234 24.2235 23.7318C23.2403 23.2402 22.2123 22.972 21.0056 22.972C19.6201 22.972 18.3687 23.3296 17.2514 24.0447C16.1341 24.7598 15.2849 25.743 14.6592 27.0838C14.0336 28.3799 13.7207 29.8994 13.7207 31.5977C13.7207 33.2961 14.0336 34.7709 14.6592 36.0223C15.2849 37.2737 16.1341 38.257 17.2067 38.972C18.2794 39.6424 19.5755 40 20.9609 40C22.1229 40 23.1956 39.7318 24.1341 39.2402C25.0727 38.7486 25.7877 38.0335 26.2347 37.095V39.7318H30.3911V23.3743H26.2347V25.8324H26.3241ZM25.2067 35.3966C24.4917 36.2905 23.4637 36.7821 22.1676 36.7821C20.8268 36.7821 19.7989 36.3352 19.0391 35.4413C18.3241 34.5475 17.9218 33.2514 17.9218 31.5977C17.9218 29.8994 18.2794 28.6033 19.0391 27.6648C19.7542 26.7262 20.7822 26.2793 22.1229 26.2793C23.4637 26.2793 24.4917 26.7262 25.2067 27.6648C25.9218 28.5586 26.2794 29.8994 26.2794 31.5531C26.3241 33.162 25.9218 34.4581 25.2067 35.3966Z" fill="white"/>
    <path d="M42.5475 30.3464L39.7766 29.676C39.0615 29.5419 38.5252 29.3184 38.2123 29.0056C37.8995 28.6927 37.7207 28.3352 37.7207 27.8883C37.7207 27.3073 37.9889 26.8156 38.4805 26.5028C38.9721 26.1899 39.6872 26.0112 40.6257 26.0112C42.324 26.0112 44.0224 26.6369 45.7207 27.8436L46.8827 24.9832C46.0782 24.3575 45.095 23.8212 44.0224 23.4637C42.9497 23.1061 41.8324 22.9274 40.6704 22.9274C39.3296 22.9274 38.1676 23.1508 37.1397 23.5531C36.1118 23.9553 35.352 24.581 34.771 25.3408C34.19 26.1006 33.9218 26.9944 33.9218 27.9776C33.9218 29.1844 34.2794 30.1676 35.0391 30.9274C35.7542 31.6871 36.9162 32.2235 38.4358 32.581L41.1173 33.162C42.0112 33.3855 42.6369 33.6089 42.9497 33.8771C43.3073 34.1452 43.4861 34.5028 43.4861 34.9944C43.4861 35.5754 43.2179 36.0223 42.7263 36.3352C42.2347 36.648 41.4749 36.7821 40.5363 36.7821C38.3017 36.7821 36.2905 36.1564 34.5475 34.8603L33.3855 37.7654C34.2347 38.4357 35.2626 38.9274 36.4693 39.2849C37.676 39.6425 39.0168 39.8212 40.447 39.8212C42.5475 39.8212 44.2011 39.3743 45.4078 38.4804C46.6145 37.5866 47.2402 36.3799 47.2402 34.8603C47.2402 33.6089 46.8827 32.6257 46.1229 31.8212C45.3632 31.2402 44.1564 30.7039 42.5475 30.3464Z" fill="white"/>
    <path d="M58.4134 31.2402L65.7877 23.419H60.6927L54.1229 30.5252V18.5028H49.9218V39.7319H54.1229V32.2682L61.1396 39.7319H66.324L58.4134 31.2402Z" fill="white"/>
    <path d="M10.8604 11.7989H16.0447V16.1341L25.4302 9.74302L16.0447 3.35196V7.68716H10.8604C6.61457 7.64246 3.12854 11.0838 3.12854 15.3296H7.28496C7.32966 13.3631 8.8939 11.7989 10.8604 11.7989Z" fill="white"/>
</svg>
