<svg width="20" height="20" viewBox="0 0 20 20" fill="none" xmlns="http://www.w3.org/2000/svg">
    <path fill-rule="evenodd" clip-rule="evenodd" d="M7.4 2.53247e-07H7.35719H7.35719C6.27341 -9.52194e-06 5.39925 -1.74046e-05 4.69138 0.0578185C3.96253 0.117368 3.32234 0.243181 2.73005 0.544968C1.78924 1.02434 1.02434 1.78924 0.544968 2.73005C0.243181 3.32234 0.117368 3.96253 0.0578185 4.69138C-1.74063e-05 5.39925 -9.52194e-06 6.27341 2.53247e-07 7.35719V7.35719V7.4V12.6V12.6428C-9.52191e-06 13.7266 -1.75089e-05 14.6007 0.0578185 15.3086C0.117368 16.0375 0.243181 16.6777 0.544968 17.27C1.02434 18.2108 1.78924 18.9757 2.73005 19.455C3.32234 19.7568 3.96253 19.8826 4.69138 19.9422C5.39923 20 6.27334 20 7.35707 20H7.35717H7.4H12.6H12.6428H12.6429C13.7267 20 14.6008 20 15.3086 19.9422C16.0375 19.8826 16.6777 19.7568 17.27 19.455C18.2108 18.9757 18.9757 18.2108 19.455 17.27C19.7568 16.6777 19.8826 16.0375 19.9422 15.3086C20 14.6008 20 13.7267 20 12.6429V12.6428V12.6V7.4V7.35717V7.35707C20 6.27334 20 5.39923 19.9422 4.69138C19.8826 3.96253 19.7568 3.32234 19.455 2.73005C18.9757 1.78924 18.2108 1.02434 17.27 0.544968C16.6777 0.243181 16.0375 0.117368 15.3086 0.0578185C14.6007 -1.75089e-05 13.7266 -9.52191e-06 12.6428 2.53247e-07H12.6H7.4ZM3.63803 2.32698C3.90138 2.19279 4.24907 2.10062 4.85424 2.05118C5.47108 2.00078 6.2634 2 7.4 2H12.6C13.7366 2 14.5289 2.00078 15.1458 2.05118C15.7509 2.10062 16.0986 2.19279 16.362 2.32698C16.9265 2.6146 17.3854 3.07354 17.673 3.63803C17.8072 3.90138 17.8994 4.24907 17.9488 4.85424C17.9992 5.47108 18 6.2634 18 7.4V12.1549L16.2937 9.81996C15.4948 8.72667 13.8631 8.72667 13.0642 9.81996L10.4082 13.4545C9.64521 14.4985 8.10697 14.555 7.2695 13.5697L6.7028 12.9031C5.90414 11.9634 4.45371 11.9634 3.65505 12.903L2.02955 14.8154C2.00054 14.2498 2 13.5435 2 12.6V7.4C2 6.26339 2.00078 5.47108 2.05118 4.85424C2.10062 4.24907 2.19279 3.90138 2.32698 3.63803C2.6146 3.07354 3.07354 2.6146 3.63803 2.32698ZM9 6.5C9 7.88071 7.88071 9 6.5 9C5.11929 9 4 7.88071 4 6.5C4 5.11929 5.11929 4 6.5 4C7.88071 4 9 5.11929 9 6.5Z" fill="#000000"/>
</svg>
