<svg width="18" height="18" viewBox="0 0 18 18" fill="none" xmlns="http://www.w3.org/2000/svg">
    <path d="M13 3.5V3C13 1.89543 12.1046 1 11 1H3C1.89543 1 1 1.89543 1 3V12C1 13.1046 1.89543 14 3 14H7" stroke="white" stroke-width="1.5" stroke-linecap="round" stroke-linejoin="round"/>
    <circle cx="13" cy="8.5" r="2" stroke="white" stroke-width="1.5"/>
    <path d="M13 13C10.6416 13 9.67375 14.3905 9.27652 15.5318C9.0042 16.3142 9.67157 17 10.5 17H15.5C16.3284 17 16.9958 16.3142 16.7235 15.5318C16.3262 14.3905 15.3584 13 13 13Z" stroke="white" stroke-width="1.5" stroke-linecap="round" stroke-linejoin="round"/>
    <path d="M4 5H9" stroke="white" stroke-width="1.5" stroke-linecap="round" stroke-linejoin="round"/>
    <path d="M4 8.5L7 8.5" stroke="white" stroke-width="1.5" stroke-linecap="round" stroke-linejoin="round"/>
</svg>
