<svg width="20" height="20" xmlns="http://www.w3.org/2000/svg">

 <g>
  <title>background</title>
  <rect fill="none" id="canvas_background" height="22" width="22" y="-1" x="-1"/>
 </g>
 <g>
  <title>Layer 1</title>
  <g transform="rotate(-180 10,9.737110137939453) " id="svg_2">
   <g id="svg_3">
    <path fill="#999999" stroke="null" id="svg_7" d="m14.288226,12.713292c-0.517587,-0.517628 -1.35684,-0.517628 -1.874468,0l-1.088286,1.088286l0,-11.328669c0,-0.732045 -0.59342,-1.325424 -1.325465,-1.325424s-1.325465,0.59342 -1.325465,1.325424l0,11.328669l-1.088286,-1.088286c-0.517628,-0.517587 -1.35684,-0.517628 -1.874468,0c-0.517628,0.517628 -0.517628,1.35684 0,1.874468l3.350779,3.350738c0.516602,0.516766 1.356881,0.51853 1.874878,0l3.350779,-3.350738c0.517587,-0.517628 0.517628,-1.35684 0,-1.874468z"/>
   </g>
  </g>
  <g id="svg_8"/>
  <g id="svg_9"/>
  <g id="svg_10"/>
  <g id="svg_11"/>
  <g id="svg_12"/>
  <g id="svg_13"/>
  <g id="svg_14"/>
  <g id="svg_15"/>
  <g id="svg_16"/>
  <g id="svg_17"/>
  <g id="svg_18"/>
  <g id="svg_19"/>
  <g id="svg_20"/>
  <g id="svg_21"/>
  <g id="svg_22"/>
 </g>
</svg>